<svg xmlns="http://www.w3.org/2000/svg" xmlns:xlink="http://www.w3.org/1999/xlink" viewBox="0 0 321.8 351"><defs><style>.cls-1{fill:url(#Degradado_sin_nombre_53);}.cls-2{fill:url(#Degradado_sin_nombre_181);}.cls-3{fill:url(#Degradado_sin_nombre_181-2);}.cls-4{fill:url(#Degradado_sin_nombre_144);}.cls-5{fill:url(#Degradado_sin_nombre_144-2);}</style><radialGradient id="Degradado_sin_nombre_53" cx="160.07" cy="186.02" fx="140.3357058113238" fy="170.75876415293746" r="41.13" gradientTransform="translate(-0.4 -6.8) scale(1.01 1)" gradientUnits="userSpaceOnUse"><stop offset="0" stop-color="#ffeb3b"/><stop offset="0.06" stop-color="#fcdc22"/><stop offset="0.13" stop-color="#f9d00f"/><stop offset="0.21" stop-color="#f8c904"/><stop offset="0.28" stop-color="#f7c700"/><stop offset="0.67" stop-color="#e9913b"/><stop offset="0.89" stop-color="#e27036"/><stop offset="1" stop-color="#dc4231"/></radialGradient><radialGradient id="Degradado_sin_nombre_181" cx="81.28" cy="219.3" fx="114.06295681977788" fy="193.80646909598082" r="85.13" gradientTransform="translate(-0.4 -112) scale(1.01 1.42)" gradientUnits="userSpaceOnUse"><stop offset="0.13" stop-color="#56a7d9"/><stop offset="0.42" stop-color="#2177b0"/><stop offset="0.63" stop-color="#005996"/><stop offset="0.74" stop-color="#004a8f"/><stop offset="1" stop-color="#002a80"/></radialGradient><radialGradient id="Degradado_sin_nombre_181-2" cx="259.61" cy="294.26" fx="193.33129052632162" fy="318.66633612080955" r="70.63" gradientTransform="matrix(-0.97, 0.27, -0.26, -0.97, 589.86, 446.75)" xlink:href="#Degradado_sin_nombre_181"/><radialGradient id="Degradado_sin_nombre_144" cx="90.99" cy="251.18" fx="35.91465472586716" fy="170.19088162861055" r="138.63" gradientTransform="translate(-0.4 76.2) scale(1.01 0.67)" gradientUnits="userSpaceOnUse"><stop offset="0.09" stop-color="#ff87b3"/><stop offset="0.38" stop-color="#e64380"/><stop offset="0.4" stop-color="#e4417f"/><stop offset="0.59" stop-color="#d12478"/><stop offset="0.7" stop-color="#ca1975"/><stop offset="0.79" stop-color="#be156f"/><stop offset="0.96" stop-color="#a00960"/><stop offset="1" stop-color="#97065c"/></radialGradient><radialGradient id="Degradado_sin_nombre_144-2" cx="23.64" cy="33.88" fx="129.79169187189575" fy="90.19258995673565" r="170.08" gradientTransform="translate(200.8 117.9) rotate(180) scale(1.01 0.67)" xlink:href="#Degradado_sin_nombre_144"/></defs><title>Asset 10</title><g id="Layer_2" data-name="Layer 2"><g id="Layer_1-2" data-name="Layer 1"><g id="_Group_" data-name="&lt;Group&gt;"><path id="_Compound_Path_" data-name="&lt;Compound Path&gt;" class="cls-1" d="M124.2,175.5A36.7,36.7,0,1,1,160.8,212,36.6,36.6,0,0,1,124.2,175.5Z"/><path id="_Path_" data-name="&lt;Path&gt;" class="cls-2" d="M87.8,78.9C57.6,78.9,29,89,4.9,108L.1,111.8a9.1,9.1,0,0,0-.1,1.7c0,26.1,26.1,47.3,58.2,47.3,20.7,0,38.9-8.8,49.2-22,.8-1.3,1.7-2.5,2.6-3.7a138,138,0,0,1,44.1-38.4A132.2,132.2,0,0,0,87.8,78.9Z"/><path id="_Path_2" data-name="&lt;Path&gt;" class="cls-3" d="M234.5,272.1c30.2,0,58.8-10.2,82.9-29.6l4.3-3.5c0-.2.1-.4.1-.7,0-26.6-26.1-48.2-58.2-48.2-20.6,0-38.7,8.9-49,22.4l-2.7,3.8a136,136,0,0,1-42.7,38.3A131.4,131.4,0,0,0,234.5,272.1Z"/><path id="_Path_3" data-name="&lt;Path&gt;" class="cls-4" d="M234.4,278.6c-52,0-97.6-28.7-123.3-71.7l-2.7-4.6A58.5,58.5,0,0,0,.5,233.4,57.8,57.8,0,0,0,5,255.8c2.1,4.1,4.4,8,6.8,11.9a175.9,175.9,0,0,0,309.5-19.4A140.2,140.2,0,0,1,234.4,278.6Z"/><path id="_Path_4" data-name="&lt;Path&gt;" class="cls-5" d="M87.8,72.4c52,0,97.6,28.7,123.3,71.7l2.6,4.6a58.5,58.5,0,0,0,107.9-31.1,57.8,57.8,0,0,0-4.5-22.4c-2.1-4.1-4.3-8-6.7-11.9A175.9,175.9,0,0,0,.9,102.7,140.2,140.2,0,0,1,87.8,72.4Z"/></g></g></g></svg>