<svg xmlns="http://www.w3.org/2000/svg" viewBox="0 0 238 238"><defs><style>.cls-1{fill:#b11f72;}.cls-2{fill:#fff;}</style></defs><title>Asset 5</title><g id="Layer_2" data-name="Layer 2"><g id="Layer_1-2" data-name="Layer 1"><circle class="cls-1" cx="119" cy="119" r="119"/><path class="cls-2" d="M85.1,185.2a2.9,2.9,0,0,0-2.1-.9,3.1,3.1,0,0,0-2.9,2.9,2.9,2.9,0,0,0,.9,2.1,3,3,0,0,0,2,.8,2.7,2.7,0,0,0,2.9-2.9A3,3,0,0,0,85.1,185.2Z"/><path class="cls-2" d="M59.4,151.1a3,3,0,0,0-4.1-.1h0a2.9,2.9,0,0,0,1.9,5,3.1,3.1,0,0,0,2-.7h0A2.9,2.9,0,0,0,59.4,151.1Z"/><path class="cls-2" d="M183,146.5a12.1,12.1,0,0,0-15.9-4.4l-29.2,14.6a2.9,2.9,0,0,0-1.3,3.9,2.8,2.8,0,0,0,3.8,1.3l29.3-14.7a6.6,6.6,0,0,1,8.5,2.4,6.9,6.9,0,0,1,.8,5.1,6.6,6.6,0,0,1-3.2,4.1l-39.4,21.5a33.5,33.5,0,0,1-15.9,4H94.9a2.9,2.9,0,1,0,0,5.8h25.6a39.3,39.3,0,0,0,18.7-4.7l39.3-21.5a12.9,12.9,0,0,0,6.1-7.8A12.1,12.1,0,0,0,183,146.5Z"/><path class="cls-2" d="M126.6,157.1l-12-9.6a36.2,36.2,0,0,0-22.1-7.7H71.8a2.9,2.9,0,0,0-2.9-2.9h-21a2.9,2.9,0,0,0,0,5.8H66v44.6H47.9a2.8,2.8,0,0,0-2.9,2.8,2.9,2.9,0,0,0,2.9,2.9h21a2.9,2.9,0,0,0,2.9-2.9V145.6H92.5a29.8,29.8,0,0,1,18.5,6.5l12.1,9.5a5,5,0,0,1,1.8,4.7,4.9,4.9,0,0,1-3.1,4,5.2,5.2,0,0,1-4.7-.5l-15.4-10.3a2.9,2.9,0,0,0-3.2,4.9l15.4,10.2a10.8,10.8,0,0,0,6,1.8,9.7,9.7,0,0,0,4.1-.8,10.8,10.8,0,0,0,2.6-18.5Z"/><path class="cls-2" d="M190.1,95.3h-18V50.8h18a2.9,2.9,0,1,0,0-5.8H169.2a2.9,2.9,0,0,0-2.9,2.9V92.4H145.6A30.1,30.1,0,0,1,127.1,86L115,76.4a5.2,5.2,0,0,1-1.9-4.7,5,5,0,0,1,3.1-3.9,4.9,4.9,0,0,1,4.7.4l15.5,10.3a2.9,2.9,0,1,0,3.2-4.8L124.1,63.4a10.8,10.8,0,0,0-12.7,17.5l12.1,9.6a35.4,35.4,0,0,0,22.1,7.7h20.7a2.9,2.9,0,0,0,2.9,2.9h20.9a2.9,2.9,0,1,0,0-5.8Z"/><path class="cls-2" d="M158.1,48.8a2.9,2.9,0,0,0-2.1-.9,3.1,3.1,0,0,0-2.9,2.9,2.9,2.9,0,0,0,.9,2.1,3,3,0,0,0,2,.8,2.7,2.7,0,0,0,2.9-2.9A3,3,0,0,0,158.1,48.8Z"/><path class="cls-2" d="M143.6,47.9H117.5a39,39,0,0,0-18.6,4.8L59.5,74.2a11.9,11.9,0,0,0-6,7.7A12.3,12.3,0,0,0,70.9,96l29.3-14.7a2.9,2.9,0,0,0-2.6-5.2L68.3,90.8a6.5,6.5,0,0,1-8.4-2.3,6.4,6.4,0,0,1-.8-5.2,6.5,6.5,0,0,1,3.2-4.1l39.3-21.4a33,33,0,0,1,15.9-4.1h26.1a2.9,2.9,0,1,0,0-5.8Z"/><path class="cls-2" d="M184.2,81.7a2.9,2.9,0,0,0-4.1-.2h0a2.9,2.9,0,0,0-.2,4.1,3.2,3.2,0,0,0,2.2,1,2.9,2.9,0,0,0,1.9-.8h0A2.9,2.9,0,0,0,184.2,81.7Z"/><path class="cls-2" d="M127,102.2a14.6,14.6,0,0,0-8,2.6,13.8,13.8,0,0,0-21.9,11.6c0,4.6,3.4,9.8,10.5,15.9a112.4,112.4,0,0,0,9.9,7.4,2.6,2.6,0,0,0,1.5.4,2.9,2.9,0,0,0,1.6-.4,103.2,103.2,0,0,0,9.8-7.4c7.1-6.1,10.5-11.3,10.5-15.9A14.1,14.1,0,0,0,127,102.2Zm-8,31.6c-7.1-4.8-16.1-12.8-16.1-17.4a8.1,8.1,0,0,1,14-5.8,2.7,2.7,0,0,0,4.2,0A8.4,8.4,0,0,1,127,108a8.3,8.3,0,0,1,8.2,8.4C135.2,121,126.2,128.9,119,133.8Z"/></g></g></svg>