<svg xmlns="http://www.w3.org/2000/svg" viewBox="0 0 238 238"><defs><style>.cls-1{fill:#b11f72;}.cls-2{fill:#fff;}</style></defs><title>Asset 3</title><g id="Layer_2" data-name="Layer 2"><g id="Layer_1-2" data-name="Layer 1"><circle class="cls-1" cx="119" cy="119" r="119"/><path class="cls-2" d="M126.8,195.2a1.5,1.5,0,0,1-.9-.2,161.3,161.3,0,0,1-19.3-9.2A131.7,131.7,0,0,1,88.2,195a2.5,2.5,0,0,1-1.7,0,143.7,143.7,0,0,1-31.7-18c-21-15.8-32.1-34.5-32.1-54s8.4-28.3,15.8-33.2c1.2-15.5,7.3-28,17.6-36.2,8.6-6.9,20.3-10.8,32.7-10.8,19,0,33,15.4,38,21.8,4.9-6.4,18.9-21.8,37.9-21.8,23.4,0,50.6,14,50.6,53.5,0,26.7-15.2,52.2-44,73.9A199.2,199.2,0,0,1,127.6,195,1.3,1.3,0,0,1,126.8,195.2ZM111.3,183c7.6,4,13.4,6.4,15.5,7.3a207.1,207.1,0,0,0,41.7-23.9c19.2-14.5,42.1-38.4,42.1-70.1,0-35.9-23.7-48.7-45.9-48.7s-35.8,22.1-36,22.3a2.1,2.1,0,0,1-1.9,1.1h0a2.3,2.3,0,0,1-2-1.1c-.2-.2-15.1-22.3-36-22.3S47.3,58.1,43.5,87.1a40.7,40.7,0,0,1,16.4-3.3c13.4,0,23.4,10.3,27.5,15.3,4-5,14-15.3,27.4-15.3s26.1,6.6,32.2,17.6h0c3.3,5.9,5,13.2,5,21.6C152,150.8,130.7,170.6,111.3,183ZM41.6,93.5c-9.3,5.7-14.1,15.9-14.1,29.5,0,40.8,52.5,64.2,59.9,67.2,7.3-3,59.9-26.4,59.9-67.2,0-7.5-1.5-14-4.4-19.3-7.6-13.7-22.2-15.1-28.1-15.1-14.8,0-25.3,15.6-25.4,15.8a2.4,2.4,0,0,1-2,1.1,2.3,2.3,0,0,1-2-1.1c-.1-.2-10.7-15.8-25.5-15.8A34.9,34.9,0,0,0,42,93.3Z"/></g></g></svg>