<svg xmlns="http://www.w3.org/2000/svg" xmlns:xlink="http://www.w3.org/1999/xlink" viewBox="0 0 98.8 126.6"><defs><style>.cls-1{fill:#b9d8e2;}.cls-2{fill:#fff;}.cls-3{fill:url(#Degradado_sin_nombre);}.cls-4{fill:url(#Degradado_sin_nombre_2);}.cls-5{fill:none;stroke:#3c2513;stroke-linecap:round;stroke-miterlimit:10;stroke-width:2px;}.cls-6{fill:#3c2513;}.cls-7{fill:#9c2c30;}</style><linearGradient id="Degradado_sin_nombre" x1="53.51" y1="-568.68" x2="101.23" y2="-587.16" gradientTransform="matrix(1, 0, 0, -1, 0, -488.2)" gradientUnits="userSpaceOnUse"><stop offset="0" stop-color="#b9d8e2"/><stop offset="0.55" stop-color="#b9d7df"/><stop offset="0.91" stop-color="#bad3d6"/><stop offset="1" stop-color="#bad2d3"/></linearGradient><linearGradient id="Degradado_sin_nombre_2" x1="7.53" y1="-521.84" x2="39.79" y2="-534.33" gradientTransform="matrix(1, 0, 0, -1, 0, -488.2)" gradientUnits="userSpaceOnUse"><stop offset="0" stop-color="#b9d8e2"/><stop offset="0.32" stop-color="#bcdae3"/><stop offset="0.53" stop-color="#c5dee7"/><stop offset="0.71" stop-color="#d4e7ed"/><stop offset="0.87" stop-color="#e9f3f6"/><stop offset="1" stop-color="#fff"/></linearGradient></defs><title>Asset 1</title><g id="Layer_2" data-name="Layer 2"><g id="Capa_1" data-name="Capa 1"><path class="cls-1" d="M49.4,0S-.8,47.6,0,80.8c.5,18.5,15.3,45.8,49.4,45.8S98.3,99.3,98.8,80.8C99.6,47.6,49.4,0,49.4,0Z"/><path class="cls-2" d="M5.9,76.6l.9,2.8,1.1,3.1q.6,1.8,1.5,3.9l2,4.5,1.2,2.4,1.3,2.4a44.2,44.2,0,0,0,3.1,4.9,53.2,53.2,0,0,0,3.6,4.7,54.4,54.4,0,0,0,4.1,4.2l2.2,1.9,1.1.9,1.1.8,1.1.8,1.1.7,1.1.7a4.1,4.1,0,0,1,1.1.7l4.3,2.3c1.4.6,2.7,1.3,3.9,1.7l3.1,1.2,2,.7.7.3h-3l-3.4-.3h-1l-1.1-.2-2.3-.5a36,36,0,0,1-5-1.6l-1.3-.5-1.3-.6-1.4-.7-1.3-.8-1.4-.8-1.3-.9-2.6-1.9a41.6,41.6,0,0,1-4.8-4.6,40.9,40.9,0,0,1-4-5.3l-1.7-2.8c-.5-.9-1-1.9-1.4-2.8s-1.5-3.7-2.1-5.5a37.2,37.2,0,0,1-1.2-5.1A41.6,41.6,0,0,1,5.3,83c-.1-1.3-.1-2.5-.1-3.4a18.5,18.5,0,0,1,.2-3Z"/><path class="cls-3" d="M88.7,57.1S109.8,96.8,72,115l-1.5.4c-34.5,9.6-1.2-6,5.8-15.9S79.6,57,84.2,57Z"/><path class="cls-4" d="M41.1,13.6c0,1.2-39.5,42.2-32.6,53S44.4,18.6,44,16.1A3,3,0,0,0,41.1,13.6Z"/><path class="cls-5" d="M18.6,68.9a8.3,8.3,0,0,1,16.6,0"/><path class="cls-5" d="M63.7,68.9a8.3,8.3,0,1,1,16.6,0"/><path class="cls-6" d="M54.5,82.9a5,5,0,0,1-10,0c0-2.8,2.2-.6,5-.6S54.5,80.2,54.5,82.9Z"/><path class="cls-7" d="M16,76.2c0,1-1.9,1.8-4.3,1.8s-4.3-.8-4.3-1.8,1.9-1.8,4.3-1.8S16,75.2,16,76.2Z"/><path class="cls-7" d="M82.9,76.2c0,1,1.9,1.8,4.3,1.8s4.3-.8,4.3-1.8-1.9-1.8-4.3-1.8S82.9,75.2,82.9,76.2Z"/></g></g></svg>