<svg xmlns="http://www.w3.org/2000/svg" xmlns:xlink="http://www.w3.org/1999/xlink" viewBox="0 0 342.2 186.8"><defs><style>.cls-1,.cls-24,.cls-3{fill:none;}.cls-2{fill:#c2c3c9;}.cls-24,.cls-3{stroke:#bf0811;stroke-miterlimit:10;stroke-width:17px;}.cls-4{fill:#b9d8e2;}.cls-5{fill:#fff;}.cls-24,.cls-6{isolation:isolate;}.cls-7{fill:#fafbfd;}.cls-8{fill:#e8e8e8;}.cls-9{fill:#cfd5e3;}.cls-10{fill:#d7d8da;}.cls-11{fill:#f2f2f2;}.cls-12{fill:#868687;}.cls-13{fill:#bfcbe3;}.cls-14{clip-path:url(#clip-path);}.cls-15{fill:#e1e4ea;}.cls-16{clip-path:url(#clip-path-2);}.cls-17{fill:#49b8b5;}.cls-18{fill:#374246;}.cls-19{clip-path:url(#clip-path-3);}.cls-20{fill:#174969;}.cls-21{clip-path:url(#clip-path-4);}.cls-22{fill:#d0d9ea;}.cls-23{fill:#d9d9d9;}.cls-24{opacity:0.7;}</style><clipPath id="clip-path"><path class="cls-1" d="M275.4,2.3,221.9,33.4c.5-.4,1.3-.2,2.2.2l53.3-31A2.2,2.2,0,0,0,275.4,2.3Z"/></clipPath><clipPath id="clip-path-2"><path class="cls-1" d="M241.8,47.7l53.5-31a7.3,7.3,0,0,0-3.1-5.6L238.8,42A7.7,7.7,0,0,1,241.8,47.7Z"/></clipPath><clipPath id="clip-path-3"><path class="cls-1" d="M287.2,11.5l4.8,2.8c-4.9-2.8-11.6-2.5-19.1,1.9l-4.7-2.8C275.6,9,282.3,8.6,287.2,11.5Z"/></clipPath><clipPath id="clip-path-4"><path class="cls-1" d="M246.2,62.3l-4.7-2.8c0-17,11.9-37.8,26.7-46.2l4.7,2.8C258.2,24.7,246.2,45.4,246.2,62.3Z"/></clipPath></defs><title>Asset 2</title><g id="Layer_2" data-name="Layer 2"><g id="Capa_1" data-name="Capa 1"><path class="cls-2" d="M141.9,61.8v9.6h-5.7v9.1h-.6l-17-.2-3.3-.2a7.2,7.2,0,0,1-5.1-3.3,13.4,13.4,0,0,1-2-7.3V64h.7a1.1,1.1,0,0,0,1.2-1.2V60.7c0-.9-.3-1.2-1.2-1.2h-5.4a1.8,1.8,0,0,0,.4-.9,1.3,1.3,0,0,0-1.1-1.4,11.8,11.8,0,0,0-2.6-.2c-.4,0-.5-.1-.5-.5v-12c0-.4.1-.7.6-.8l.3.3a1.3,1.3,0,0,0,1.9-.2.8.8,0,0,1,1-.4l8.3,1.1a7.9,7.9,0,0,0,5.6,2.2,8.1,8.1,0,1,0-5.3-14.2,85.8,85.8,0,0,1-8.7,1,.8.8,0,0,1-.8-.3c-.5-.6-1.4-.8-1.8-.3a.8.8,0,0,1-1,.1,20.7,20.7,0,0,0-3.3-1,11,11,0,0,0-6.9,1.1.6.6,0,0,1-.6,0c-.9-.7-1.5-.7-2.2.2s-.4.3-.6.2l-2.4-.2a37.3,37.3,0,0,1-6.7-.9,7.9,7.9,0,0,0-5.2-1.9,8.1,8.1,0,0,0,0,16.2,7.8,7.8,0,0,0,5.5-2.2l8.7-1.1c.3,0,.5,0,.7.3a1.4,1.4,0,0,0,2.2.2l.3-.3c.3.2.3.3.3.8,0,4.1-.3,8.2-.3,12.3v.5H87.1c-1.3.2-2,1.1-1.1,2.4H80.8a1.1,1.1,0,0,0-1.2,1.2V63a1.2,1.2,0,0,0,1.2,1.2h.6v3.6a48.7,48.7,0,0,1-.2,5.4,6.2,6.2,0,0,1-3.3,5.1,9.6,9.6,0,0,1-3.7,1.3,36.9,36.9,0,0,0-4.6.8c-1.6.4-3.2,1-4.7,1.5a23.8,23.8,0,0,0-5.5,2.8A10.9,10.9,0,0,0,57.7,86a41.5,41.5,0,0,0-3.2,2.7,35.8,35.8,0,0,0-2.6,2.9,39.1,39.1,0,0,0-3,4.1c-.8,1.3-1.5,2.7-2.2,4.1s-1.2,2.9-1.8,4.3a64.9,64.9,0,0,0-2.3,7.5c-.2.9-.5,1.8-.7,2.8l17.4,3.2a4.3,4.3,0,0,1,.1-.5c.2-1,.3-2,.6-3s1-2.9,1.4-4.3a20,20,0,0,1,2.3-4.9,14.5,14.5,0,0,1,3.4-4,10,10,0,0,1,3.6-2.1,13.4,13.4,0,0,1,7.4.6c1.4.5,2.7,1.2,4,1.8l3.7,1.8a22.3,22.3,0,0,0,6.2,1.9,23.1,23.1,0,0,0,8.3-.3,58,58,0,0,0,5.9-1.9,32.8,32.8,0,0,1,6.1-1.8,50.8,50.8,0,0,1,6.7-.7c5.4-.1,10.8,0,16.3.1h1.1V108h5.7v10.8h9.1V62.2A78,78,0,0,0,141.9,61.8Z"/><path class="cls-2" d="M40.3,121.1l17.4,3.2,1-6-17.4-3.2Z"/><circle class="cls-3" cx="93" cy="93" r="84.5"/><line class="cls-3" x1="29.7" y1="149" x2="156" y2="36.7"/><path class="cls-4" d="M48.4,129.1s-8.1,7.7-8,13.1a7.8,7.8,0,0,0,8,7.4,7.8,7.8,0,0,0,8-7.4C56.6,136.8,48.4,129.1,48.4,129.1Z"/><path class="cls-5" d="M41.4,141.5a1.8,1.8,0,0,0,.1.5l.2.5a1.4,1.4,0,0,1,.2.6l.3.7.2.4c.1.1.1.3.2.4l.5.8.6.8.7.7.4.3H46l.7.4.6.3.5.2H46.4l-.8-.3H44.4l-.4-.3-.8-.7a4.7,4.7,0,0,1-.6-.9l-.3-.5c-.1-.2-.2-.3-.2-.5l-.3-.9a3.1,3.1,0,0,1-.2-.8c0-.3-.1-.5-.1-.7V142a.5.5,0,0,1-.1-.5Z"/><g class="cls-6"><polygon class="cls-7" points="231.3 147.8 276.3 121.7 274.9 120.8 229.9 147 231.3 147.8"/><polygon class="cls-7" points="285 178.9 330 152.7 276.3 121.7 231.3 147.8 285 178.9"/><polygon class="cls-7" points="286.7 179.8 331.7 153.7 330 152.7 285 178.9 286.7 179.8"/><polygon class="cls-8" points="286.7 186.8 331.7 160.8 331.7 153.7 286.7 179.8 286.7 186.8"/><polygon class="cls-9" points="229.9 147 229.9 154.1 286.7 186.8 286.7 179.8 285 178.9 231.3 147.8 229.9 147"/><polygon class="cls-10" points="244.4 106.8 289.4 80.7 268.8 68.8 223.9 95 244.4 106.8"/><polygon class="cls-8" points="281.3 176.7 326.3 150.5 324.8 126.2 279.9 152.3 281.3 176.7"/><polygon class="cls-10" points="295.6 136.3 340.5 110.3 289.4 80.7 244.4 106.8 295.6 136.3"/><path d="M223.9,95l12.8,32.3-1.5,22.8,46.1,26.6-1.4-24.3c8.8,5.1,15.8-.8,15.9-13,0-1,0-8.7-.1-9.7l-51.2-22.8Z"/><g class="cls-6"><path class="cls-11" d="M310.2,141.4,334.9,127c3.4-2.1,5.7-7,5.7-13.8a27.1,27.1,0,0,0-.1-2.9l-45,20c.2,1,.2,8.1.2,9.1,0,6.8-2.2,11.7-5.8,13.8h0l20.3-11.8Z"/></g></g><g class="cls-6"><polygon class="cls-12" points="241.7 105.2 295 74.2 295 73.5 241.7 104.6 241.7 105.2"/><polygon class="cls-12" points="241.7 104.6 295 73.5 295 72.2 241.7 103.3 241.7 104.6"/><polygon class="cls-13" points="241.7 103.3 295 72.2 295.2 48.5 241.7 79.4 241.7 103.3"/><path id="SVGID" class="cls-7" d="M275.4,2.3,221.9,33.4c.5-.4,1.3-.2,2.2.2l53.3-31A2.2,2.2,0,0,0,275.4,2.3Z"/><g class="cls-14"><g class="cls-6"><path class="cls-15" d="M224.1,33.6l53.3-31a2.7,2.7,0,0,0-1.4-.4l-53.4,31a2.8,2.8,0,0,1,1.5.4Z"/><path class="cls-15" d="M222.7,33.2l53.4-31a.7.7,0,0,0-.6.3L221.9,33.4l.8-.2Z"/></g></g><polygon class="cls-11" points="241.7 79.4 295.2 48.5 295.3 16.7 241.8 47.7 241.7 79.4"/><polygon points="238.8 42 292.2 11.1 277.4 2.6 224.1 33.6 238.8 42"/><path id="SVGID-2" data-name="SVGID" class="cls-15" d="M241.8,47.7l53.5-31a7.3,7.3,0,0,0-3.1-5.6L238.8,42A7.7,7.7,0,0,1,241.8,47.7Z"/><g class="cls-16"><g class="cls-6"><path class="cls-11" d="M241.8,47.7l53.5-31a5,5,0,0,0-.5-2.3l-53.3,31a8.5,8.5,0,0,1,.3,2.3Z"/><path class="cls-11" d="M241.5,45.4l53.4-31a2.9,2.9,0,0,0-.8-1.4L240.7,44a6.4,6.4,0,0,0,.8,1.4Z"/><path d="M240.7,44l53.4-31a5,5,0,0,0-1.9-1.9L238.8,42a6.1,6.1,0,0,1,1.9,2Z"/></g></g><path d="M224.1,33.6c-1.7-1.1-3.1-.2-3.1,2V92.4l.4.8L241.7,105V79.3l.2-31.7a7.3,7.3,0,0,0-3.1-5.7Z"/></g><g class="cls-6"><g class="cls-6"><g class="cls-6"><path class="cls-5" d="M276,120.7a42.5,42.5,0,0,0,8.4,3.6,62.3,62.3,0,0,0,23.7,2.5V132a62.3,62.3,0,0,1-23.7-2.6,53.1,53.1,0,0,1-8.4-3.6l-34.4-20v-5.2Z"/><path class="cls-5" d="M308,126.8V132c7.8-.7,15.4-2.7,21.5-6.2s11.1-10,11.1-15.5v-5.2c0,5.7-3.7,11.3-11.1,15.6a53.3,53.3,0,0,1-21.5,6.1Z"/></g></g><path class="cls-17" d="M241.6,100.6,276,120.7c14.8,8.6,38.7,8.6,53.6,0s14.9-22.5.1-31l-34.4-20Z"/></g><g class="cls-6"><path class="cls-18" d="M255.8,18.3c-2.1,1.4-2.1,3.7.2,5a8.1,8.1,0,0,0,8.1-.2c2.2-1.4,2.2-3.7-.2-5A8.9,8.9,0,0,0,255.8,18.3Z"/><path class="cls-5" d="M255.8,18.1c-2.1,1.3-2,3.5.2,4.7a8.9,8.9,0,0,0,8.1-.2c2.2-1.2,2-3.4-.2-4.6A9.9,9.9,0,0,0,255.8,18.1Z"/></g><path d="M241.6,100.6,276,120.7c14.8,8.6,38.7,8.6,53.6,0s14.9-22.5.1-31l-34.4-20Z"/><g class="cls-6"><polygon class="cls-5" points="246.3 103.5 241.6 100.6 241.5 59.6 246.2 62.3 246.3 103.5"/><g class="cls-6"><g class="cls-19"><g class="cls-6"><path class="cls-5" d="M272.9,16.1l-4.7-2.8a27.1,27.1,0,0,1,8.1-3.3l4.7,2.9a30.1,30.1,0,0,0-8.1,3.2Z"/><path class="cls-5" d="M281.2,12.9,276.4,10a16.2,16.2,0,0,1,10.4,1.2l4.8,2.8a15.2,15.2,0,0,0-10.4-1.1Z"/><path class="cls-20" d="M291.6,14l-4.8-2.8.5.3,4.8,2.8-.5-.3Z"/></g></g></g><g class="cls-6"><g class="cls-21"><path class="cls-5" d="M246.2,62.3l-4.7-2.8a49.2,49.2,0,0,1,4.7-20.3L251,42c-3,6.8-4.8,13.9-4.8,20.3Z"/><path class="cls-5" d="M251,42.2l-4.8-2.9a66.8,66.8,0,0,1,9-14.6l4.8,2.8a63,63,0,0,0-9,14.7Z"/><path class="cls-5" d="M260,27.5l-4.8-2.8a49.2,49.2,0,0,1,13-11.4l4.7,2.8A51.1,51.1,0,0,0,260,27.5Z"/></g></g><path d="M272.9,16.1c14.8-8.6,26.9-1.7,26.9,15.3V72.5l-53.6,30.9V62.3C246.2,45.4,258.2,24.7,272.9,16.1Z"/></g><path class="cls-11" d="M262.5,106l-4.2-2.4,21.8,12.7a44,44,0,0,0,15.1,4.8v-34Z"/><path class="cls-22" d="M332.2,107.9c0,.4-.2.8-.2,1.2A2.5,2.5,0,0,0,332.2,107.9Z"/><path class="cls-8" d="M331.5,110.4a15.4,15.4,0,0,0-6.1-5.7L295.2,87.1v34a58.7,58.7,0,0,0,7.4.5c8.5,0,16.7-2,22.6-5.3,3.8-2.2,6.1-4.6,6.8-7.1A3.1,3.1,0,0,1,331.5,110.4Z"/><path class="cls-23" d="M325.4,104.7c2.9,1.8,5.1,3.8,6.1,5.7a3.1,3.1,0,0,0,.5-1.2h0a2.5,2.5,0,0,0,.2-1.2c0-2.5-2.6-5.6-6.8-8.2L295.2,82.3v4.8Z"/><polygon class="cls-8" points="295.2 87.1 295.2 82.3 258.3 103.6 262.5 106 295.2 87.1"/><line class="cls-24" x1="215" y1="32.1" x2="336.3" y2="149.8"/><line class="cls-24" x1="336.3" y1="32.1" x2="215" y2="149.8"/></g></g></svg>