<svg xmlns="http://www.w3.org/2000/svg" viewBox="0 0 238 238"><defs><style>.cls-1{fill:#b11f72;}.cls-2{fill:#fff;}</style></defs><title>Asset 2</title><g id="Layer_2" data-name="Layer 2"><g id="Layer_1-2" data-name="Layer 1"><circle class="cls-1" cx="119" cy="119" r="119"/><path class="cls-2" d="M77.3,62.5a15,15,0,0,0-9.8,14.1,16,16,0,0,0,1.7,6.9,12.1,12.1,0,0,0-7.8,11.3,12.3,12.3,0,0,0,7.8,11.3,15.6,15.6,0,0,0-1.7,6.9,15.2,15.2,0,0,0,9.8,14.1,13.4,13.4,0,0,0-.7,4A12.1,12.1,0,0,0,93,142.5a12.1,12.1,0,0,0,23-5.3V52.4a12.2,12.2,0,0,0-12.1-12.2A12.3,12.3,0,0,0,93,47.1,12.1,12.1,0,0,0,76.6,58.4,14.1,14.1,0,0,0,77.3,62.5ZM88.7,52.4a6,6,0,0,1,6.1,6h6A11.5,11.5,0,0,0,98,50.8a6.1,6.1,0,0,1,5.9-4.5,6,6,0,0,1,6,6.1v84.8a6,6,0,0,1-6,6.1,6.1,6.1,0,0,1-5.9-4.5,11.6,11.6,0,0,0,2.8-7.7h-6a6.1,6.1,0,1,1-6.1-6V119a11.8,11.8,0,0,0-7.7,2.9A9.1,9.1,0,1,1,91.7,113h6.1A15.2,15.2,0,0,0,82.7,97.8a14.9,14.9,0,0,0-9.1,3.1h0a6.1,6.1,0,1,1,0-12.1h0a14.3,14.3,0,0,0,9.1,3.1A15.1,15.1,0,0,0,97.8,76.6H91.7A9.1,9.1,0,1,1,81,67.7a12.3,12.3,0,0,0,7.7,2.8v-6a6.1,6.1,0,0,1,0-12.1Z"/><path class="cls-2" d="M166.7,44a69.1,69.1,0,0,0-52.1-18.8l.3,6.1a63.6,63.6,0,0,1,39.2,116.5,37.6,37.6,0,0,0-13.6,16.7h-43a37.8,37.8,0,0,0-13.8-16.8,63.3,63.3,0,0,1-28.3-55h-6a69.4,69.4,0,0,0,30.9,60.2,31.1,31.1,0,0,1,10.5,11.7H82.7v6H93.2a31.5,31.5,0,0,1,1.3,6.1H88.7v6.1h6.1v9.1a3,3,0,0,0,3,3h3a18.2,18.2,0,1,0,36.4,0h3a3.1,3.1,0,0,0,3.1-3v-9.1h6v-6.1h-5.8a31.4,31.4,0,0,1,1.2-6.1h10.7v-6h-8.3a30.6,30.6,0,0,1,10.4-11.6A69.7,69.7,0,0,0,166.7,44ZM119,206.9a12.1,12.1,0,0,1-12.1-12.1h24.2A12.1,12.1,0,0,1,119,206.9Zm18.2-18.2H100.8v-6h36.4Zm.2-12.1H100.6a40.9,40.9,0,0,0-1-6.1h38.8A43.1,43.1,0,0,0,137.4,176.6Z"/></g></g></svg>