<svg xmlns="http://www.w3.org/2000/svg" xmlns:xlink="http://www.w3.org/1999/xlink" viewBox="0 0 137 44.9"><defs><style>.cls-1{font-size:34.88px;font-family:Surface-Bold, Surface;font-weight:700;letter-spacing:0.01em;}.cls-1,.cls-5,.cls-6{fill:#fff;}.cls-2{letter-spacing:0.01em;}.cls-3{letter-spacing:0.02em;}.cls-4{letter-spacing:0.01em;}.cls-5{font-size:8.2px;font-family:Verdana, Verdana;}.cls-6{stroke:#fff;stroke-miterlimit:10;}.cls-7{fill:url(#Degradado_sin_nombre_53);}.cls-8{fill:url(#Degradado_sin_nombre_181);}.cls-9{fill:url(#Degradado_sin_nombre_181-2);}.cls-10{fill:url(#Degradado_sin_nombre_144);}.cls-11{fill:url(#Degradado_sin_nombre_144-2);}</style><radialGradient id="Degradado_sin_nombre_53" cx="29.41" cy="33.92" r="4.43" gradientTransform="translate(-12.32 -9.46) scale(1.01 1)" gradientUnits="userSpaceOnUse"><stop offset="0" stop-color="#ffef3b"/><stop offset="0.06" stop-color="#fde022"/><stop offset="0.13" stop-color="#fcd40f"/><stop offset="0.21" stop-color="#fbcd04"/><stop offset="0.28" stop-color="#fbcb00"/><stop offset="0.67" stop-color="#ed953b"/><stop offset="0.89" stop-color="#e67036"/><stop offset="1" stop-color="#e04231"/></radialGradient><radialGradient id="Degradado_sin_nombre_181" cx="20.93" cy="58.13" r="9.16" gradientTransform="translate(-12.32 -55.7) scale(1.01 1.42)" gradientUnits="userSpaceOnUse"><stop offset="0.13" stop-color="#56abdd"/><stop offset="0.42" stop-color="#2179b4"/><stop offset="0.63" stop-color="#00599a"/><stop offset="0.74" stop-color="#004a93"/><stop offset="1" stop-color="#002a84"/></radialGradient><radialGradient id="Degradado_sin_nombre_181-2" cx="40.13" cy="124.18" fx="32.99186588040173" r="7.6" gradientTransform="matrix(-0.97, 0.27, -0.26, -0.97, 99.41, 139.69)" xlink:href="#Degradado_sin_nombre_181"/><radialGradient id="Degradado_sin_nombre_144" cx="21.98" cy="40.94" fy="32.218956498320736" r="14.92" gradientTransform="translate(-12.32 4.08) scale(1.01 0.67)" gradientUnits="userSpaceOnUse"><stop offset="0.09" stop-color="#ff8bb7"/><stop offset="0.38" stop-color="#ea4381"/><stop offset="0.4" stop-color="#e84180"/><stop offset="0.59" stop-color="#d52478"/><stop offset="0.7" stop-color="#ce1975"/><stop offset="0.79" stop-color="#c2156f"/><stop offset="0.96" stop-color="#a40960"/><stop offset="1" stop-color="#9b065c"/></radialGradient><radialGradient id="Degradado_sin_nombre_144-2" cx="3434.58" cy="2042.67" fx="3446.0072121164135" fy="2042.6682714926756" r="18.31" gradientTransform="translate(3478.63 1388.43) rotate(180) scale(1.01 0.67)" xlink:href="#Degradado_sin_nombre_144"/></defs><title>Asset 1</title><g id="Layer_2" data-name="Layer 2"><g id="Layer_1-2" data-name="Layer 1"><text class="cls-1" transform="translate(40 26.86)">R<tspan class="cls-2" x="18.07" y="0">E</tspan><tspan class="cls-3" x="34.11" y="0">M</tspan><tspan class="cls-4" x="60.66" y="0">SO</tspan></text><text class="cls-5" transform="translate(41.7 42.42)">Biorremediación Social</text><polygon class="cls-6" points="43.55 30.83 133.81 30.83 133.81 30.83 43.55 30.83 43.55 30.83"/><g id="_Group_" data-name="&lt;Group&gt;"><path id="_Compound_Path_" data-name="&lt;Compound Path&gt;" class="cls-7" d="M13.36,24.1A3.95,3.95,0,1,1,17.31,28,3.94,3.94,0,0,1,13.36,24.1Z"/><path id="_Path_" data-name="&lt;Path&gt;" class="cls-8" d="M9.45,13.71A14.24,14.24,0,0,0,.53,16.84L0,17.25a1.09,1.09,0,0,0,0,.18c0,2.81,2.81,5.09,6.27,5.09a6.68,6.68,0,0,0,5.29-2.37c.09-.13.19-.26.28-.4a14.89,14.89,0,0,1,4.75-4.13A14.24,14.24,0,0,0,9.45,13.71Z"/><path id="_Path_2" data-name="&lt;Path&gt;" class="cls-9" d="M25.24,34.5a14.16,14.16,0,0,0,8.93-3.18l.46-.38v-.07c0-2.87-2.8-5.19-6.25-5.19a6.63,6.63,0,0,0-5.29,2.41l-.28.41a14.82,14.82,0,0,1-4.59,4.12A14,14,0,0,0,25.24,34.5Z"/><path id="_Path_3" data-name="&lt;Path&gt;" class="cls-10" d="M25.23,35.2A15.46,15.46,0,0,1,12,27.48L11.67,27A6.3,6.3,0,0,0,.06,30.34a6.19,6.19,0,0,0,.48,2.4c.23.44.47.87.73,1.29a18.93,18.93,0,0,0,33.31-2.09A15.06,15.06,0,0,1,25.23,35.2Z"/><path id="_Path_4" data-name="&lt;Path&gt;" class="cls-11" d="M9.45,13a15.46,15.46,0,0,1,13.27,7.72c.1.16.19.33.28.49a6.3,6.3,0,0,0,11.62-3.35,6.19,6.19,0,0,0-.48-2.4c-.23-.44-.47-.87-.73-1.29A18.93,18.93,0,0,0,.09,16.27,15.09,15.09,0,0,1,9.45,13Z"/></g></g></g></svg>