<svg xmlns="http://www.w3.org/2000/svg" viewBox="0 0 289 329.02"><defs><style>.cls-1{fill:#345f93;}.cls-2{fill:#043c7f;}.cls-3{font-size:61.47px;}.cls-3,.cls-5,.cls-6{fill:#fff;font-family:OpenSans, Open Sans;}.cls-4,.cls-5{font-size:40.98px;}.cls-4{font-family:MyriadPro-Regular, Myriad Pro;}.cls-6{font-size:28.17px;}</style></defs><title>Asset 4</title><g id="Layer_2" data-name="Layer 2"><g id="Layer_1-2" data-name="Layer 1"><path class="cls-1" d="M286.44,164.67c0,26-.05,52.07.07,78.11,0,3.05-.78,4.81-3.54,6.4q-68.42,39.3-136.66,78.89a5.41,5.41,0,0,1-6.22-.06Q71.82,288.47,3.44,249.1C.87,247.62,0,246,0,243.08Q.15,164.54,0,86c0-3.16,1.08-4.75,3.74-6.29Q71.94,40.49,140,1a6.39,6.39,0,0,1,3.25-1,6.84,6.84,0,0,1,3.35,1.08Q214.7,40.55,282.89,79.77c2.05,1.18,3.07,2.43,3.45,4.28a10.14,10.14,0,0,1,.17,2.07C286.39,112.3,286.44,138.49,286.44,164.67Z"/><polygon class="cls-2" points="287.83 81.8 288.88 84.36 289 244.29 288.15 246.73 147.05 328.84 143.82 329.02 144.89 0 287.83 81.8"/><text class="cls-3" transform="translate(93.12 95.73)">75<tspan class="cls-4" x="70.3" y="0">%</tspan></text><text class="cls-5" transform="translate(13.64 157.34)">7052 Millones</text><text class="cls-6" transform="translate(35.01 194.4)">de persona viven<tspan x="18.41" y="33.81">en localidades</tspan><tspan x="58.01" y="67.62">urbanas</tspan></text></g></g></svg>