<svg xmlns="http://www.w3.org/2000/svg" viewBox="0 0 238 238"><defs><style>.cls-1{fill:#b11f72;}.cls-2{fill:#fff;}</style></defs><title>Asset 4</title><g id="Layer_2" data-name="Layer 2"><g id="Layer_1-2" data-name="Layer 1"><circle class="cls-1" cx="119" cy="119" r="119"/><path class="cls-2" d="M214.2,88.7a13.1,13.1,0,0,0-2.8-8.2l-15-19.3a13.2,13.2,0,0,0-10.2-4.9,12.4,12.4,0,0,0-6.7,1.9l-14.7,9.1A13.7,13.7,0,0,1,158,69a13,13,0,0,1-5.2-1l-14.4-7a17.4,17.4,0,0,0-7.5-1.6,18.4,18.4,0,0,0-10.5,3l-1.7,1.2L113,60.8a22.6,22.6,0,0,0-9.4-2A24.3,24.3,0,0,0,95,60.4l-9.8,4.2a16.5,16.5,0,0,1-6.7,1.1,16,16,0,0,1-6.6-1.1l-9.8-4.2a15.5,15.5,0,0,0-5.6-1.1,17.4,17.4,0,0,0-6.4,1.3,14.1,14.1,0,0,0-5.4,3.7l-17.9,20A11.9,11.9,0,0,0,23.9,92a11.7,11.7,0,0,0,4.1,8.9l16.6,14.2-7.9,8.3a11.9,11.9,0,0,0-3.2,8.1,11.7,11.7,0,0,0,3.6,8.5l1.6,1.6a13,13,0,0,0,5.3,2.8,11.2,11.2,0,0,0-1.5,5.6,11.5,11.5,0,0,0,3.7,8.5h0l1.6,1.6a12.1,12.1,0,0,0,8.2,3.2,12.5,12.5,0,0,0,4.6-.9,11.5,11.5,0,0,0,3.3,5.7l1.6,1.5a11.7,11.7,0,0,0,8.1,3.3,12.2,12.2,0,0,0,6.6-2,12.3,12.3,0,0,0,3.1,5.1l1.6,1.5a11.8,11.8,0,0,0,8.2,3.2,12,12,0,0,0,8.6-3.6l7-7.3,9.5,8.8a12,12,0,0,0,16.7-.6l1.5-1.6a12.1,12.1,0,0,0,2.7-4.8l3.7,3.3a11.7,11.7,0,0,0,16.7-.6l1.5-1.6a11.6,11.6,0,0,0,3.1-6.5,13.5,13.5,0,0,0,2.9.4,12.1,12.1,0,0,0,8.7-3.7l1.5-1.7a11.6,11.6,0,0,0,3.2-8,10.9,10.9,0,0,0-.4-2.6,12.7,12.7,0,0,0,7.2-3.6l1.5-1.7a11.5,11.5,0,0,0,3.1-8,11.9,11.9,0,0,0-3.7-8.7l-2.9-2.6,25.6-28.3A13.3,13.3,0,0,0,214.2,88.7ZM46.9,138.4a5.3,5.3,0,0,1-3.7-1.5l-1.6-1.5a5.6,5.6,0,0,1-1.7-3.9,5.1,5.1,0,0,1,1.5-3.7l16.2-16.9a5.6,5.6,0,0,1,3.9-1.7,5.1,5.1,0,0,1,3.7,1.5l1.6,1.5s1.7,2.5,1.7,3.9a5,5,0,0,1-1,3.1L50.1,137.4A6.3,6.3,0,0,1,46.9,138.4Zm13,16.8a5.4,5.4,0,0,1-7.7.2l-1.6-1.5h0a5.6,5.6,0,0,1-.2-7.6l21.8-22.7a5.3,5.3,0,0,1,3.7-1.5,5.5,5.5,0,0,1,3.8,1.5l1.6,1.5a5.1,5.1,0,0,1,1.6,3.9,5.7,5.7,0,0,1-1.4,3.7Zm17.7,9.6a5.7,5.7,0,0,1-7.7.2l-1.6-1.6a5.1,5.1,0,0,1-1.6-3.8,5.4,5.4,0,0,1,1.2-3.4l15-15.7a5.4,5.4,0,0,1,3.6-1.4,5.3,5.3,0,0,1,3.7,1.5l1.6,1.5a5.6,5.6,0,0,1,1.7,3.9,5.1,5.1,0,0,1-1.5,3.7Zm28.5-1.7L97,172.7a5.4,5.4,0,0,1-3.9,1.6,5.1,5.1,0,0,1-3.7-1.5l-1.6-1.5a5.2,5.2,0,0,1-1.7-3.9,5.5,5.5,0,0,1,1.5-3.7l9.1-9.5a5.6,5.6,0,0,1,3.9-1.7,5.1,5.1,0,0,1,3.7,1.5l1.6,1.5a5.6,5.6,0,0,1,1.7,3.9A5.1,5.1,0,0,1,106.1,163.1Zm79.3-25.8a5.5,5.5,0,0,1-1.5,3.7l-1.5,1.6a5.4,5.4,0,0,1-3.9,1.7,5.1,5.1,0,0,1-3.7-1.5l-25.5-23.5-4.4,4.7,27.3,25.3a5.2,5.2,0,0,1,1.7,3.9,5.9,5.9,0,0,1-1.4,3.7l-1.5,1.6a5.6,5.6,0,0,1-4,1.7,5.4,5.4,0,0,1-3.6-1.4l-25.5-23.6-4.4,4.7,22.6,20.9a5.4,5.4,0,0,1,1.6,3.9,5,5,0,0,1-1.4,3.6l-1.5,1.7a5.6,5.6,0,0,1-4,1.7,5.1,5.1,0,0,1-3.6-1.5l-22.6-20.8h0l-4.4,4.7h.1l11.3,10.4a5.5,5.5,0,0,1,1.5,3.7,5,5,0,0,1-1.4,3.7l-1.5,1.6a5.6,5.6,0,0,1-4,1.7,5.4,5.4,0,0,1-3.6-1.4l-9.9-9.1a11.4,11.4,0,0,0,1.4-5.4,11.8,11.8,0,0,0-3.7-8.5l-1.6-1.5a11.9,11.9,0,0,0-8.2-3.3h-.7V146c0-3.1-3.7-8.5-3.7-8.5l-1.6-1.6a11.8,11.8,0,0,0-6-3,10.7,10.7,0,0,0,.7-3.9,11.8,11.8,0,0,0-3.7-8.6l-1.6-1.5a11.6,11.6,0,0,0-8.1-3.2H74.9a11.9,11.9,0,0,0-3.6-8.2h0l-1.6-1.5a11.8,11.8,0,0,0-16.8.4l-3.8,3.9L32.2,96a5.2,5.2,0,0,1-1.8-4,5,5,0,0,1,1.3-3.4l17.8-20a9.3,9.3,0,0,1,3-2,11.4,11.4,0,0,1,4-.8,7,7,0,0,1,3,.6l9.8,4.1a23.5,23.5,0,0,0,9.2,1.7,22.9,22.9,0,0,0,9.2-1.7l9.8-4.1a15.8,15.8,0,0,1,6.1-1.1,16.7,16.7,0,0,1,6.5,1.2l2.6,1.4-10,7a11.6,11.6,0,0,0-2.6,16.4h0l1.3,1.7a12.8,12.8,0,0,0,16.8,3.3l5.9-3.5a9.8,9.8,0,0,1,5-1.3,10.6,10.6,0,0,1,5.9,1.7l16.5,11.9a146.6,146.6,0,0,1,13,10.6l19.2,17.7A5.2,5.2,0,0,1,185.4,137.3ZM206,93.4l-25.5,28.2-11.6-10.7c-3.6-3.3-9.6-8.2-13.6-11.1L138.7,88a16.4,16.4,0,0,0-9.6-2.9,16,16,0,0,0-8.3,2.1l-6,3.6a5.6,5.6,0,0,1-3.1.9,6.5,6.5,0,0,1-5.1-2.5l-1.3-1.8h-.1a4.9,4.9,0,0,1-1-3,5.4,5.4,0,0,1,2.2-4.3l17.7-12.4a12.7,12.7,0,0,1,6.8-1.9,10.9,10.9,0,0,1,4.7,1L150,73.7a18.3,18.3,0,0,0,8,1.7,19.9,19.9,0,0,0,10.2-2.6l14.7-9.2a7.3,7.3,0,0,1,3.3-.8,6.3,6.3,0,0,1,5.1,2.3l15,19.3a6.9,6.9,0,0,1,1.4,4.3A6.8,6.8,0,0,1,206,93.4Z"/></g></g></svg>