<svg xmlns="http://www.w3.org/2000/svg" viewBox="0 0 124.6 174.7"><defs><style>.cls-1{fill:none;stroke:#000;stroke-miterlimit:10;stroke-width:9px;}</style></defs><title>Asset 3</title><g id="Layer_2" data-name="Layer 2"><g id="Capa_1" data-name="Capa 1"><path d="M40.6,89.4H38.1v11.2H40c1.7,0,3.2-.4,3.2-3.7v-4C43.3,89.6,42,89.4,40.6,89.4Z"/><path d="M88.9,89.4H86.5v12.5h2.4c1.3,0,2.5-.2,2.5-3.2V92.6C91.5,89.6,90.3,89.4,88.9,89.4Z"/><path d="M118.3,146.4h-5.6a20.1,20.1,0,0,0,.1-2.5V66A21.7,21.7,0,0,0,101,46.7,23.7,23.7,0,0,0,78.9,31.8H45.8A23.9,23.9,0,0,0,23.7,46.7,21.7,21.7,0,0,0,11.9,66v77.9c0,.8.1,1.7.1,2.5H6.3A6.3,6.3,0,0,0,0,152.7v15.7a6.3,6.3,0,0,0,6.3,6.3h112a6.3,6.3,0,0,0,6.3-6.3V152.7A6.3,6.3,0,0,0,118.3,146.4Zm-67.8-23a2.8,2.8,0,0,1-1.9.9H46a2.6,2.6,0,0,1-2.5-2.1,26.1,26.1,0,0,1-.2-3.5v-6.4c0-4.2-1.8-4.5-3.6-4.5H38.1v14a2.5,2.5,0,0,1-2.5,2.5H33a2.5,2.5,0,0,1-2.5-2.5V84.9A2.5,2.5,0,0,1,33,82.4h7.8c6.9,0,10.1,3.2,10.1,10v3.2c0,3.9-1.1,6.7-3.5,8.2,2.4,1.5,3.6,4.3,3.6,8.7v6.3a21.8,21.8,0,0,0,.1,2.7A2.4,2.4,0,0,1,50.5,123.4Zm18-1.7a2.5,2.5,0,0,1-2.5,2.5H63.4a2.5,2.5,0,0,1-2.5-2.5V84.8a2.5,2.5,0,0,1,2.5-2.5H66a2.5,2.5,0,0,1,2.5,2.5ZM99.1,98.3c0,8.8-5.5,10.7-10.2,10.7H86.5v12.8a2.5,2.5,0,0,1-2.5,2.5H81.4a2.5,2.5,0,0,1-2.5-2.5V84.9a2.5,2.5,0,0,1,2.5-2.5h7.5c4.6,0,10.2,1.9,10.2,10.7Z"/><line class="cls-1" x1="61.3" x2="61.3" y2="33.9"/><line class="cls-1" x1="47.6" y1="16.2" x2="75.1" y2="16.2"/></g></g></svg>